<?xml version="1.0" encoding="UTF-8"?>
<svg version="1.1" xmlns="http://www.w3.org/2000/svg" width="512" height="512">
<path d="M0 0 C9.69242413 6.95288386 16.11995831 16.46391612 18.3125 28.3125 C19.20255131 42.86141557 16.76980464 53.93664943 7.56640625 65.5078125 C1.29219651 72.36900652 -6.61295146 76.49759029 -15.6875 78.3125 C-15.6875 95.1425 -15.6875 111.9725 -15.6875 129.3125 C-11.16675781 129.29155273 -6.64601563 129.27060547 -1.98828125 129.24902344 C12.98728159 129.18259503 27.96285042 129.13829701 42.93852234 129.10525131 C52.0137792 129.08469022 61.08889575 129.05669417 70.1640625 129.01074219 C78.08073434 128.97067559 85.99730447 128.94502039 93.9140749 128.93614602 C98.09985774 128.93096456 102.28534984 128.91892363 106.47103882 128.88957977 C110.42405159 128.86209595 114.37665844 128.85412022 118.32975769 128.86006927 C119.76791096 128.85898356 121.20608017 128.85122813 122.64414978 128.8356781 C141.27513734 128.64438222 157.31037554 133.04632072 171.09887695 146.0065918 C182.50888799 157.19497629 189.18496563 172.04000378 189.53955078 188.11962891 C189.53924116 189.7594742 189.52837038 191.39934604 189.5078125 193.0390625 C189.50356766 194.34960098 189.50356766 194.34960098 189.49923706 195.68661499 C189.48817303 198.43705814 189.46309581 201.18715774 189.4375 203.9375 C189.42745234 205.81900567 189.41832964 207.70051651 189.41015625 209.58203125 C189.38827912 214.15898357 189.35384719 218.73568385 189.3125 223.3125 C190.74468872 223.29292236 190.74468872 223.29292236 192.20581055 223.27294922 C193.46176025 223.26279785 194.71770996 223.25264648 196.01171875 223.2421875 C197.87703247 223.22260986 197.87703247 223.22260986 199.7800293 223.20263672 C208.92942354 223.4871918 216.38261053 227.84273355 223.0703125 233.90625 C231.40892456 242.78959551 231.91870649 253.21747817 231.84375 264.8125 C231.84645171 266.2988307 231.85033974 267.78515966 231.85534668 269.27148438 C231.86120996 272.37126664 231.85278259 275.47058466 231.83398438 278.5703125 C231.81119598 282.51758796 231.82433633 286.46377508 231.84827423 290.41101074 C231.86281899 293.47566738 231.8580869 296.54007154 231.84776306 299.60473633 C231.84511964 301.05900201 231.8482803 302.5132916 231.85768127 303.9675293 C231.92229808 316.76816484 229.79235563 325.67021825 220.828125 335.109375 C213.78465388 341.27788076 206.30850289 343.47926685 197.125 343.375 C196.37541016 343.37048828 195.62582031 343.36597656 194.85351562 343.36132812 C193.00647617 343.34956354 191.15947787 343.33162865 189.3125 343.3125 C189.3439209 345.04983398 189.3439209 345.04983398 189.37597656 346.82226562 C189.44942568 351.1982747 189.49467335 355.57423173 189.53222656 359.95068359 C189.55210682 361.83000914 189.57922087 363.70927483 189.61425781 365.58837891 C189.98675596 386.10864428 187.31595348 403.5897168 172.578125 419.03515625 C171.83046875 419.78667969 171.0828125 420.53820312 170.3125 421.3125 C169.70921875 421.95058594 169.1059375 422.58867187 168.484375 423.24609375 C164.42061523 427.21267666 159.95800211 429.70827385 154.875 432.125 C154.26640137 432.41528076 153.65780273 432.70556152 153.03076172 433.00463867 C145.44486995 436.41698102 137.89366341 437.6159969 129.62207031 437.55732727 C128.38274435 437.56072413 128.38274435 437.56072413 127.1183815 437.56418961 C124.37571546 437.56944711 121.6332795 437.56068588 118.890625 437.55200195 C116.91377694 437.55311589 114.93692921 437.55517534 112.96008301 437.55810547 C108.71551669 437.56281498 104.47100575 437.56172089 100.22644043 437.55632973 C93.51062045 437.54870193 86.79490651 437.55939525 80.07910156 437.5735321 C60.98632375 437.6112221 41.89359463 437.62945488 22.80078125 437.61791992 C12.24642294 437.61170072 1.69223644 437.6232956 -8.86207962 437.65436524 C-15.53416942 437.67300013 -22.20577178 437.66971995 -28.87785339 437.65019763 C-33.03236651 437.64330603 -37.18661641 437.65729205 -41.34107971 437.67714691 C-43.26269738 437.68218499 -45.1843596 437.67873313 -47.10594177 437.66601372 C-60.74764239 437.36410688 -60.74764239 437.36410688 -72.6875 443.3125 C-74.1062087 444.24315187 -75.52939193 445.16704146 -76.95825195 446.08203125 C-78.44993142 447.09266955 -79.93899327 448.10717932 -81.42578125 449.125 C-82.24884766 449.68345108 -83.07191406 450.24190216 -83.91992188 450.817276 C-85.69245915 452.02002931 -87.46396557 453.22430299 -89.23452759 454.42996216 C-93.99375952 457.66971033 -98.76193927 460.89620726 -103.53125 464.12109375 C-104.51958328 464.78942734 -105.50791656 465.45776093 -106.52619934 466.14634705 C-117.62781645 473.64119013 -128.80813969 481.01585282 -140 488.375 C-141.42706772 489.31339722 -141.42706772 489.31339722 -142.88296509 490.27075195 C-146.38709105 492.57440546 -149.89133395 494.8778749 -153.39746094 497.17848206 C-154.51229858 497.91009804 -154.51229858 497.91009804 -155.6496582 498.65649414 C-156.34173874 499.10993698 -157.03381927 499.56337982 -157.74687195 500.03056335 C-159.54131919 501.21593614 -161.31901311 502.42326369 -163.09619141 503.63427734 C-167.07771692 506.21285341 -169.01997804 505.97928885 -173.6875 505.3125 C-176.8547802 502.8140388 -178.48422626 501.32434978 -179.28877258 497.31950378 C-179.27766953 496.21141861 -179.26656647 495.10333344 -179.25512695 493.96166992 C-179.2547493 492.7007402 -179.25437164 491.43981049 -179.25398254 490.14067078 C-179.22845324 488.77475994 -179.20237333 487.40885931 -179.17578125 486.04296875 C-179.16644859 484.63765218 -179.15933461 483.23231928 -179.15434265 481.82698059 C-179.13530772 478.13911541 -179.08623971 474.45224449 -179.03082275 470.76477051 C-178.97955304 466.99761402 -178.9568123 463.23029589 -178.93164062 459.46289062 C-178.87811537 452.0789752 -178.79284782 444.69587724 -178.6875 437.3125 C-179.30183899 437.31725845 -179.91617798 437.32201691 -180.5491333 437.32691956 C-181.35695251 437.33062057 -182.16477173 437.33432159 -182.99707031 437.33813477 C-183.7970343 437.34289322 -184.59699829 437.34765167 -185.42120361 437.35255432 C-200.02114966 437.09451617 -212.80354025 428.32271471 -222.6875 418.3125 C-223.24953125 417.77238281 -223.8115625 417.23226563 -224.390625 416.67578125 C-238.55216241 401.88070138 -239.13931666 382.16545145 -238.875 363 C-238.85991845 361.08399495 -238.84623622 359.16797836 -238.83398438 357.25195312 C-238.80127091 352.60517831 -238.74968253 347.95897005 -238.6875 343.3125 C-239.7801416 343.32917725 -240.8727832 343.34585449 -241.99853516 343.36303711 C-243.44954072 343.37652665 -244.90055013 343.38960724 -246.3515625 343.40234375 C-247.42869507 343.42041077 -247.42869507 343.42041077 -248.52758789 343.43884277 C-258.70466417 343.50575894 -265.16965762 339.72749604 -272.484375 332.7578125 C-278.51872414 326.06011292 -280.78959696 319.66963039 -280.86450195 310.77490234 C-280.87107315 310.12713837 -280.87764435 309.47937439 -280.88441467 308.8119812 C-280.90407727 306.67413193 -280.91579725 304.53635284 -280.92578125 302.3984375 C-280.92985678 301.66437305 -280.9339323 300.93030861 -280.93813133 300.17399979 C-280.95896665 296.28511083 -280.97327675 292.39625685 -280.98266602 288.50732422 C-280.99369805 284.51291696 -281.02806739 280.51907173 -281.06783772 276.52486229 C-281.09413086 273.4345301 -281.10236923 270.34432898 -281.10594749 267.25389481 C-281.11078431 265.78284555 -281.12231432 264.31180099 -281.14098549 262.84086227 C-281.28605064 250.65039031 -279.62190064 241.42439506 -271.0390625 232.359375 C-263.22603024 225.55866253 -255.55821798 223.15482974 -245.375 223.25 C-244.12074219 223.25902344 -242.86648437 223.26804688 -241.57421875 223.27734375 C-240.14529297 223.29474609 -240.14529297 223.29474609 -238.6875 223.3125 C-238.70321045 222.17409668 -238.7189209 221.03569336 -238.73510742 219.86279297 C-238.79008475 215.57250256 -238.8240924 211.28224214 -238.85229492 206.99169922 C-238.86722913 205.14724463 -238.88758395 203.30282457 -238.91381836 201.45849609 C-239.1987301 180.88898562 -236.68806188 162.84723687 -221.94506836 147.37426758 C-208.70730082 134.14099733 -193.19268212 129.10278348 -174.79718018 129.06365967 C-173.39782618 129.07073472 -171.99847317 129.07800429 -170.59912109 129.08544922 C-169.10012825 129.0860144 -167.60113486 129.08569468 -166.10214233 129.08456421 C-162.06149167 129.08399387 -158.02096142 129.09569608 -153.98033857 129.10971212 C-149.74695933 129.12227309 -145.51357688 129.12339419 -141.28018188 129.12576294 C-133.27647988 129.13196201 -125.27283297 129.14835141 -117.26915514 129.16846192 C-108.15181305 129.19087005 -99.03446824 129.20182667 -89.91710544 129.21185279 C-71.17386611 129.23271914 -52.43070224 129.26937557 -33.6875 129.3125 C-33.6875 112.4825 -33.6875 95.6525 -33.6875 78.3125 C-36.9875 77.3225 -40.2875 76.3325 -43.6875 75.3125 C-46.97873068 73.65497717 -49.79189136 71.58568809 -52.6875 69.3125 C-53.30496094 68.83296875 -53.92242187 68.3534375 -54.55859375 67.859375 C-61.82763389 61.44837301 -67.26221897 50.50347625 -67.92578125 40.84375 C-68.30840151 26.98841543 -65.32576318 15.5475025 -55.6875 5.15625 C-40.32345499 -9.54933594 -17.82502146 -10.84607238 0 0 Z " fill="#FEDE00" transform="translate(280.6875,6.6875)"/>
<path d="M0 0 C9.69242413 6.95288386 16.11995831 16.46391612 18.3125 28.3125 C19.20255131 42.86141557 16.76980464 53.93664943 7.56640625 65.5078125 C1.29219651 72.36900652 -6.61295146 76.49759029 -15.6875 78.3125 C-15.6875 95.1425 -15.6875 111.9725 -15.6875 129.3125 C-11.16675781 129.29155273 -6.64601563 129.27060547 -1.98828125 129.24902344 C12.98728159 129.18259503 27.96285042 129.13829701 42.93852234 129.10525131 C52.0137792 129.08469022 61.08889575 129.05669417 70.1640625 129.01074219 C78.08073434 128.97067559 85.99730447 128.94502039 93.9140749 128.93614602 C98.09985774 128.93096456 102.28534984 128.91892363 106.47103882 128.88957977 C110.42405159 128.86209595 114.37665844 128.85412022 118.32975769 128.86006927 C119.76791096 128.85898356 121.20608017 128.85122813 122.64414978 128.8356781 C141.27513734 128.64438222 157.31037554 133.04632072 171.09887695 146.0065918 C182.50888799 157.19497629 189.18496563 172.04000378 189.53955078 188.11962891 C189.53924116 189.7594742 189.52837038 191.39934604 189.5078125 193.0390625 C189.50356766 194.34960098 189.50356766 194.34960098 189.49923706 195.68661499 C189.48817303 198.43705814 189.46309581 201.18715774 189.4375 203.9375 C189.42745234 205.81900567 189.41832964 207.70051651 189.41015625 209.58203125 C189.38827912 214.15898357 189.35384719 218.73568385 189.3125 223.3125 C190.74468872 223.29292236 190.74468872 223.29292236 192.20581055 223.27294922 C193.46176025 223.26279785 194.71770996 223.25264648 196.01171875 223.2421875 C197.87703247 223.22260986 197.87703247 223.22260986 199.7800293 223.20263672 C208.92942354 223.4871918 216.38261053 227.84273355 223.0703125 233.90625 C231.40892456 242.78959551 231.91870649 253.21747817 231.84375 264.8125 C231.84645171 266.2988307 231.85033974 267.78515966 231.85534668 269.27148438 C231.86120996 272.37126664 231.85278259 275.47058466 231.83398438 278.5703125 C231.81119598 282.51758796 231.82433633 286.46377508 231.84827423 290.41101074 C231.86281899 293.47566738 231.8580869 296.54007154 231.84776306 299.60473633 C231.84511964 301.05900201 231.8482803 302.5132916 231.85768127 303.9675293 C231.92229808 316.76816484 229.79235563 325.67021825 220.828125 335.109375 C213.78465388 341.27788076 206.30850289 343.47926685 197.125 343.375 C196.37541016 343.37048828 195.62582031 343.36597656 194.85351562 343.36132812 C193.00647617 343.34956354 191.15947787 343.33162865 189.3125 343.3125 C189.3439209 345.04983398 189.3439209 345.04983398 189.37597656 346.82226562 C189.44942568 351.1982747 189.49467335 355.57423173 189.53222656 359.95068359 C189.55210682 361.83000914 189.57922087 363.70927483 189.61425781 365.58837891 C189.98675596 386.10864428 187.31595348 403.5897168 172.578125 419.03515625 C171.83046875 419.78667969 171.0828125 420.53820312 170.3125 421.3125 C169.70921875 421.95058594 169.1059375 422.58867187 168.484375 423.24609375 C164.42061523 427.21267666 159.95800211 429.70827385 154.875 432.125 C154.26640137 432.41528076 153.65780273 432.70556152 153.03076172 433.00463867 C145.44486995 436.41698102 137.89366341 437.6159969 129.62207031 437.55732727 C128.38274435 437.56072413 128.38274435 437.56072413 127.1183815 437.56418961 C124.37571546 437.56944711 121.6332795 437.56068588 118.890625 437.55200195 C116.91377694 437.55311589 114.93692921 437.55517534 112.96008301 437.55810547 C108.71551669 437.56281498 104.47100575 437.56172089 100.22644043 437.55632973 C93.51062045 437.54870193 86.79490651 437.55939525 80.07910156 437.5735321 C60.98632375 437.6112221 41.89359463 437.62945488 22.80078125 437.61791992 C12.24642294 437.61170072 1.69223644 437.6232956 -8.86207962 437.65436524 C-15.53416942 437.67300013 -22.20577178 437.66971995 -28.87785339 437.65019763 C-33.03236651 437.64330603 -37.18661641 437.65729205 -41.34107971 437.67714691 C-43.26269738 437.68218499 -45.1843596 437.67873313 -47.10594177 437.66601372 C-60.74764239 437.36410688 -60.74764239 437.36410688 -72.6875 443.3125 C-74.1062087 444.24315187 -75.52939193 445.16704146 -76.95825195 446.08203125 C-78.44993142 447.09266955 -79.93899327 448.10717932 -81.42578125 449.125 C-82.24884766 449.68345108 -83.07191406 450.24190216 -83.91992188 450.817276 C-85.69245915 452.02002931 -87.46396557 453.22430299 -89.23452759 454.42996216 C-93.99375952 457.66971033 -98.76193927 460.89620726 -103.53125 464.12109375 C-104.51958328 464.78942734 -105.50791656 465.45776093 -106.52619934 466.14634705 C-117.62781645 473.64119013 -128.80813969 481.01585282 -140 488.375 C-141.42706772 489.31339722 -141.42706772 489.31339722 -142.88296509 490.27075195 C-146.38709105 492.57440546 -149.89133395 494.8778749 -153.39746094 497.17848206 C-154.51229858 497.91009804 -154.51229858 497.91009804 -155.6496582 498.65649414 C-156.34173874 499.10993698 -157.03381927 499.56337982 -157.74687195 500.03056335 C-159.54131919 501.21593614 -161.31901311 502.42326369 -163.09619141 503.63427734 C-167.07771692 506.21285341 -169.01997804 505.97928885 -173.6875 505.3125 C-176.8547802 502.8140388 -178.48422626 501.32434978 -179.28877258 497.31950378 C-179.27766953 496.21141861 -179.26656647 495.10333344 -179.25512695 493.96166992 C-179.2547493 492.7007402 -179.25437164 491.43981049 -179.25398254 490.14067078 C-179.22845324 488.77475994 -179.20237333 487.40885931 -179.17578125 486.04296875 C-179.16644859 484.63765218 -179.15933461 483.23231928 -179.15434265 481.82698059 C-179.13530772 478.13911541 -179.08623971 474.45224449 -179.03082275 470.76477051 C-178.97955304 466.99761402 -178.9568123 463.23029589 -178.93164062 459.46289062 C-178.87811537 452.0789752 -178.79284782 444.69587724 -178.6875 437.3125 C-179.30183899 437.31725845 -179.91617798 437.32201691 -180.5491333 437.32691956 C-181.35695251 437.33062057 -182.16477173 437.33432159 -182.99707031 437.33813477 C-183.7970343 437.34289322 -184.59699829 437.34765167 -185.42120361 437.35255432 C-200.02114966 437.09451617 -212.80354025 428.32271471 -222.6875 418.3125 C-223.24953125 417.77238281 -223.8115625 417.23226563 -224.390625 416.67578125 C-238.55216241 401.88070138 -239.13931666 382.16545145 -238.875 363 C-238.85991845 361.08399495 -238.84623622 359.16797836 -238.83398438 357.25195312 C-238.80127091 352.60517831 -238.74968253 347.95897005 -238.6875 343.3125 C-239.7801416 343.32917725 -240.8727832 343.34585449 -241.99853516 343.36303711 C-243.44954072 343.37652665 -244.90055013 343.38960724 -246.3515625 343.40234375 C-247.42869507 343.42041077 -247.42869507 343.42041077 -248.52758789 343.43884277 C-258.70466417 343.50575894 -265.16965762 339.72749604 -272.484375 332.7578125 C-278.51872414 326.06011292 -280.78959696 319.66963039 -280.86450195 310.77490234 C-280.87107315 310.12713837 -280.87764435 309.47937439 -280.88441467 308.8119812 C-280.90407727 306.67413193 -280.91579725 304.53635284 -280.92578125 302.3984375 C-280.92985678 301.66437305 -280.9339323 300.93030861 -280.93813133 300.17399979 C-280.95896665 296.28511083 -280.97327675 292.39625685 -280.98266602 288.50732422 C-280.99369805 284.51291696 -281.02806739 280.51907173 -281.06783772 276.52486229 C-281.09413086 273.4345301 -281.10236923 270.34432898 -281.10594749 267.25389481 C-281.11078431 265.78284555 -281.12231432 264.31180099 -281.14098549 262.84086227 C-281.28605064 250.65039031 -279.62190064 241.42439506 -271.0390625 232.359375 C-263.22603024 225.55866253 -255.55821798 223.15482974 -245.375 223.25 C-244.12074219 223.25902344 -242.86648437 223.26804688 -241.57421875 223.27734375 C-240.14529297 223.29474609 -240.14529297 223.29474609 -238.6875 223.3125 C-238.70321045 222.17409668 -238.7189209 221.03569336 -238.73510742 219.86279297 C-238.79008475 215.57250256 -238.8240924 211.28224214 -238.85229492 206.99169922 C-238.86722913 205.14724463 -238.88758395 203.30282457 -238.91381836 201.45849609 C-239.1987301 180.88898562 -236.68806188 162.84723687 -221.94506836 147.37426758 C-208.70730082 134.14099733 -193.19268212 129.10278348 -174.79718018 129.06365967 C-173.39782618 129.07073472 -171.99847317 129.07800429 -170.59912109 129.08544922 C-169.10012825 129.0860144 -167.60113486 129.08569468 -166.10214233 129.08456421 C-162.06149167 129.08399387 -158.02096142 129.09569608 -153.98033857 129.10971212 C-149.74695933 129.12227309 -145.51357688 129.12339419 -141.28018188 129.12576294 C-133.27647988 129.13196201 -125.27283297 129.14835141 -117.26915514 129.16846192 C-108.15181305 129.19087005 -99.03446824 129.20182667 -89.91710544 129.21185279 C-71.17386611 129.23271914 -52.43070224 129.26937557 -33.6875 129.3125 C-33.6875 112.4825 -33.6875 95.6525 -33.6875 78.3125 C-36.9875 77.3225 -40.2875 76.3325 -43.6875 75.3125 C-46.97873068 73.65497717 -49.79189136 71.58568809 -52.6875 69.3125 C-53.30496094 68.83296875 -53.92242187 68.3534375 -54.55859375 67.859375 C-61.82763389 61.44837301 -67.26221897 50.50347625 -67.92578125 40.84375 C-68.30840151 26.98841543 -65.32576318 15.5475025 -55.6875 5.15625 C-40.32345499 -9.54933594 -17.82502146 -10.84607238 0 0 Z M-213.1875 164.26953125 C-218.65368245 171.71435786 -220.99158102 179.58867157 -220.95492554 188.78729248 C-220.95945665 189.62657516 -220.96398776 190.46585783 -220.96865618 191.33057332 C-220.9812897 194.13547767 -220.97968048 196.94018758 -220.97802734 199.74511719 C-220.98401329 201.75931039 -220.99081899 203.77350131 -220.99838257 205.78768921 C-221.01604415 211.25478542 -221.02073805 216.72181902 -221.02201414 222.188941 C-221.02343634 225.60659116 -221.02770728 229.02422543 -221.03300858 232.44187164 C-221.05151021 244.37076324 -221.05967912 256.29961015 -221.05810547 268.22851562 C-221.05690442 279.33819521 -221.07799939 290.44768041 -221.1095928 301.55731082 C-221.13576924 311.10316592 -221.14647217 320.64895759 -221.14519465 330.1948483 C-221.14468537 335.89271202 -221.15034975 341.59040301 -221.17155075 347.2882309 C-221.19095575 352.64975763 -221.19104196 358.01094729 -221.17651749 363.37248611 C-221.17443103 365.33561573 -221.1791205 367.29876657 -221.1912384 369.26185989 C-221.43187579 383.29045746 -221.43187579 383.29045746 -216.6875 396.3125 C-215.96626953 397.64861328 -215.96626953 397.64861328 -215.23046875 399.01171875 C-207.63400102 410.15466421 -198.2803743 417.59392514 -184.6875 420.3125 C-182.83433591 420.470564 -180.9800132 420.61536194 -179.125 420.75 C-173.22236404 421.22706236 -169.43741614 422.37340374 -165.375 426.875 C-163.04158422 430.24548946 -162.55489268 431.98633649 -162.48217773 436.03759766 C-162.4522599 437.50889633 -162.4522599 437.50889633 -162.42173767 439.00991821 C-162.40502518 440.07141083 -162.38831268 441.13290344 -162.37109375 442.2265625 C-162.35031265 443.31133881 -162.32953156 444.39611511 -162.30812073 445.51376343 C-162.24259366 448.98827621 -162.18372553 452.46286624 -162.125 455.9375 C-162.08181779 458.28907058 -162.0382036 460.64063326 -161.99414062 462.9921875 C-161.88690907 468.7655427 -161.78514856 474.5389752 -161.6875 480.3125 C-158.30969596 479.05229812 -155.38758013 477.61643095 -152.38232422 475.62963867 C-151.56311493 475.09114792 -150.74390564 474.55265717 -149.89987183 473.99784851 C-149.022836 473.41461319 -148.14580017 472.83137787 -147.2421875 472.23046875 C-146.31769806 471.6204451 -145.39320862 471.01042145 -144.44070435 470.38191223 C-142.47746341 469.08525437 -140.51565521 467.78642504 -138.55517578 466.4855957 C-135.62445242 464.5411045 -132.6896428 462.60292744 -129.75390625 460.66601562 C-117.64888723 452.66747714 -105.63636995 444.54217393 -93.6875 436.3125 C-90.46467278 434.09460419 -87.23764769 431.88368862 -84 429.6875 C-83.29423828 429.19894531 -82.58847656 428.71039063 -81.86132812 428.20703125 C-81.16072266 427.73394531 -80.46011719 427.26085937 -79.73828125 426.7734375 C-78.85136597 426.16701416 -78.85136597 426.16701416 -77.9465332 425.54833984 C-71.62708234 422.0911843 -66.2353203 420.86942043 -59.14424133 420.94068909 C-58.32170071 420.93686452 -57.49916009 420.93303996 -56.651694 420.9290995 C-53.91516188 420.91986698 -51.17914273 420.9317728 -48.44262695 420.94360352 C-46.47241507 420.94113372 -44.5022045 420.9372935 -42.53199768 420.93218994 C-38.29776437 420.92386708 -34.06366563 420.92464686 -29.82943153 420.93237495 C-23.12517231 420.94398558 -16.42108511 420.93177125 -9.71684265 420.91575623 C6.93764208 420.87960593 23.59212265 420.87332802 40.24664307 420.87585449 C53.18784063 420.87756828 66.12889708 420.87036591 79.07005531 420.83587593 C85.72509301 420.8191378 92.37978582 420.82082897 99.03482187 420.83669865 C103.18839654 420.84252197 107.34180997 420.83170798 111.49535561 420.81645203 C113.41045685 420.81274594 115.32558584 420.81577504 117.24066162 420.82632256 C133.9355932 420.91208883 147.20094625 418.78078315 160 407.125 C167.7217753 399.04407236 171.62101977 388.89134281 171.58665466 377.85116577 C171.59189134 377.01329423 171.59712802 376.17542268 171.60252339 375.31216109 C171.61749348 372.51193243 171.61822789 369.71188698 171.61889648 366.91162109 C171.62652012 364.90067233 171.63494797 362.88972648 171.64411926 360.87878418 C171.66605436 355.41982452 171.67486216 349.96092088 171.67994571 344.50192213 C171.68359125 341.08827649 171.68983244 337.67464547 171.6969471 334.2610054 C171.72144074 322.34277961 171.73449276 310.42459732 171.73803711 298.50634766 C171.74166955 287.4125735 171.77154441 276.31907648 171.81344169 265.22538698 C171.84818699 255.68969129 171.86358631 246.15408723 171.86428314 236.61832869 C171.86507468 230.92817959 171.87375638 225.23831269 171.90228081 219.54822922 C171.92853303 214.19156939 171.93062656 208.83542426 171.91462517 203.47872925 C171.91281622 201.51965839 171.91945094 199.56055746 171.93544388 197.60155106 C172.05476223 182.02851468 169.71141858 170.01591918 158.50390625 158.4453125 C150.77114109 151.19487273 142.2794675 147.19768584 131.65234184 147.17827892 C130.51706673 147.17382108 129.38179161 147.16936324 128.21211421 147.16477031 C126.34837821 147.16504685 126.34837821 147.16504685 124.44699097 147.16532898 C123.10995411 147.16202795 121.77291824 147.15830188 120.43588364 147.1541875 C116.76290412 147.14418667 113.08994095 147.1404538 109.41694975 147.13779819 C105.45495633 147.13388948 101.49297578 147.12431159 97.5309906 147.11558533 C87.96379115 147.09583771 78.39659066 147.08575722 68.82937592 147.07685754 C64.32201169 147.07247216 59.81464862 147.06710602 55.30728531 147.06186867 C40.32071362 147.04485867 25.33414265 147.0303647 10.34756279 147.02311993 C6.45989862 147.02121009 2.57223446 147.01928975 -1.31542969 147.01733398 C-2.76478501 147.01660837 -2.76478501 147.01660837 -4.24342023 147.0158681 C-19.89440156 147.00756849 -35.54530644 146.98223171 -51.19625439 146.94975331 C-67.27089373 146.91666805 -83.34549424 146.89866987 -99.4201678 146.89547569 C-108.4430337 146.89331203 -117.46578808 146.88458448 -126.48862076 146.85901451 C-134.17302862 146.83728754 -141.85729788 146.82926694 -149.54173298 146.83898129 C-153.46010445 146.84352012 -157.37819005 146.84166432 -161.29652214 146.82221985 C-164.88934859 146.80454519 -168.48168154 146.80562016 -172.07451354 146.82111714 C-173.97791601 146.82460235 -175.88132392 146.80849907 -177.78465378 146.79151267 C-192.89341243 146.9041586 -203.57543162 152.76619942 -213.1875 164.26953125 Z " fill="#020100" transform="translate(280.6875,6.6875)"/>
<path d="M0 0 C8.93453461 6.2921314 15.19318342 15.40525571 18 26 C19.19025754 39.75716269 17.45926755 51.48451638 8.89453125 62.75390625 C1.54348554 71.46906353 -7.90086601 77.461026 -19.44921875 78.546875 C-32.58737597 79.20727334 -43.70727191 75.97197164 -53.78125 67.22265625 C-62.74665244 58.24146965 -67.30984716 47.77683814 -67.5625 35.0625 C-67.42131351 22.80693009 -62.62929201 12.59901379 -54 4 C-38.15649825 -9.6854168 -17.76931781 -10.78851438 0 0 Z " fill="#020300" transform="translate(178,229)"/>
<path d="M0 0 C10.24482258 7.02344112 16.54638568 16.33371042 19.95703125 28.234375 C21.2052485 41.77023733 18.47746656 54.60405345 9.89453125 65.296875 C1.58412644 74.3970375 -8.53800014 78.57798271 -20.5859375 79.5078125 C-32.626987 79.84336157 -41.73864232 76.95374209 -51.01171875 69.17578125 C-57.38176208 63.08748984 -61.35179253 56.61174613 -64.04296875 48.234375 C-64.23375 47.64269531 -64.42453125 47.05101562 -64.62109375 46.44140625 C-66.95377694 34.23801735 -65.09653272 23.22226644 -58.46875 12.74609375 C-44.82509397 -6.17692569 -20.41649932 -11.84628715 0 0 Z " fill="#020200" transform="translate(381.04296875,227.765625)"/>
<path d="M0 0 C10.19659752 0.17282369 19.0103846 4.84932765 26.4375 11.75 C34.16305575 20.1452128 38.30945265 30.12146206 38.27415466 41.46133423 C38.27939134 42.29920577 38.28462802 43.13707732 38.29002339 44.00033891 C38.30499348 46.80056757 38.30572789 49.60061302 38.30639648 52.40087891 C38.31402012 54.41182767 38.32244797 56.42277352 38.33161926 58.43371582 C38.35355436 63.89267548 38.36236216 69.35157912 38.36744571 74.81057787 C38.37109125 78.22422351 38.37733244 81.63785453 38.3844471 85.0514946 C38.40894074 96.96972039 38.42199276 108.88790268 38.42553711 120.80615234 C38.42916955 131.8999265 38.45904441 142.99342352 38.50094169 154.08711302 C38.53568699 163.62280871 38.55108631 173.15841277 38.55178314 182.69417131 C38.55257468 188.38432041 38.56125638 194.07418731 38.58978081 199.76427078 C38.61603303 205.12093061 38.61812656 210.47707574 38.60212517 215.83377075 C38.60031622 217.79284161 38.60695094 219.75194254 38.62294388 221.71094894 C38.74429575 237.54939281 36.17240003 249.22463343 25.0390625 261.08984375 C15.9308999 269.91851399 5.25334454 273.16773496 -7.19404602 273.12025452 C-8.42551991 273.12153615 -8.42551991 273.12153615 -9.68187207 273.12284368 C-12.43027096 273.12448958 -15.17860869 273.11899167 -17.92700195 273.11352539 C-19.89815774 273.1132433 -21.86931363 273.11340168 -23.84046936 273.1139679 C-29.19125149 273.11425502 -34.54201124 273.10837196 -39.89278817 273.10139394 C-45.48485466 273.09514631 -51.07692165 273.09455548 -56.66899109 273.09336853 C-67.25820375 273.09025938 -77.8474061 273.08205158 -88.43661422 273.07201904 C-100.49212214 273.060845 -112.54763056 273.05534419 -124.60314238 273.05032361 C-149.40210064 273.03986864 -174.20104974 273.02227723 -199 273 C-199 272.67 -199 272.34 -199 272 C-197.98270341 272.00222061 -196.96540682 272.00444122 -195.91728306 272.00672913 C-171.1538177 272.05895351 -146.39066522 272.06519741 -121.62717533 272.02334595 C-109.65164029 272.00416906 -97.67644695 271.99988302 -85.70092773 272.03076172 C-75.26191697 272.05764065 -64.82334883 272.05646864 -54.38435453 272.02174091 C-48.85781252 272.0043318 -43.33206333 272.00088249 -37.80555916 272.03103638 C-32.60049751 272.05899291 -27.3968407 272.04935797 -22.19185638 272.01126289 C-20.28475933 272.0038627 -18.3775522 272.01003349 -16.47055626 272.03101921 C-4.66689913 272.45228225 -4.66689913 272.45228225 5.49855042 267.23828125 C12.19839425 259.94875604 16.08231023 251.36653229 19 242 C19.17781384 241.45677094 19.35562767 240.91354187 19.5388298 240.35385132 C20.21951382 236.87958309 20.14440979 233.41925482 20.14044189 229.89306641 C20.14341302 229.06915437 20.14638414 228.24524233 20.1494453 227.39636326 C20.15812704 224.63141941 20.15964013 221.8665189 20.16113281 219.1015625 C20.16576151 217.1204672 20.17078624 215.13937279 20.17617798 213.15827942 C20.18930257 207.77151905 20.19574753 202.38477115 20.20018864 196.99799728 C20.20312042 193.63026512 20.20722552 190.26253636 20.21169281 186.89480591 C20.22537043 176.35169522 20.23503472 165.80859231 20.2388947 155.26547337 C20.24337052 143.10763547 20.26089522 130.94991027 20.2898953 118.79210663 C20.31154522 109.38809226 20.32160082 99.98410951 20.32293582 90.5800705 C20.32398185 84.96709358 20.32984619 79.35422258 20.34775543 73.74127197 C20.36429242 68.45532917 20.36636433 63.16957121 20.35761642 57.88361168 C20.35684895 55.95034984 20.3611503 54.01707784 20.37107468 52.08384132 C20.46906047 31.79573497 16.71513465 16.81703053 2.125 2.0625 C1.42375 1.381875 0.7225 0.70125 0 0 Z " fill="#F9BE07" transform="translate(414,154)"/>
<path d="M0 0 C0 28.38 0 56.76 0 86 C-14.91891892 86 -14.91891892 86 -20 82 C-24.39255032 77.25129695 -26.23976704 73.63323474 -26.30639648 67.16503906 C-26.32238388 65.9899176 -26.33837128 64.81479614 -26.35484314 63.60406494 C-26.36020584 62.33737976 -26.36556854 61.07069458 -26.37109375 59.765625 C-26.38012222 58.45849548 -26.3891507 57.15136597 -26.39845276 55.80462646 C-26.41492703 53.03736914 -26.42263953 50.27023253 -26.42553711 47.50292969 C-26.43090851 43.97442386 -26.46854084 40.44706966 -26.51428127 36.91888809 C-26.55137276 33.53447431 -26.5525746 30.15023489 -26.55859375 26.765625 C-26.57812607 25.50703674 -26.59765839 24.24844849 -26.61778259 22.95172119 C-26.58091357 15.74665314 -26.00013138 10.45255662 -21 5 C-13.53963901 -0.81908157 -10.45902226 0 0 0 Z " fill="#7C8A90" transform="translate(43,247)"/>
<path d="M0 0 C13.78640777 0 13.78640777 0 20 4 C24.47422982 8.58895366 26.24074495 12.46169727 26.30639648 18.83496094 C26.32238388 20.0100824 26.33837128 21.18520386 26.35484314 22.39593506 C26.36288719 24.29596283 26.36288719 24.29596283 26.37109375 26.234375 C26.38463646 28.19506927 26.38463646 28.19506927 26.39845276 30.19537354 C26.41492703 32.96263086 26.42263953 35.72976747 26.42553711 38.49707031 C26.43090851 42.02557614 26.46854084 45.55293034 26.51428127 49.08111191 C26.55137276 52.46552569 26.5525746 55.84976511 26.55859375 59.234375 C26.57812607 60.49296326 26.59765839 61.75155151 26.61778259 63.04827881 C26.58076877 70.28164438 25.98122766 75.51529758 21 81 C14.49090037 87.29613325 9.64463481 86 0 86 C0 57.62 0 29.24 0 0 Z " fill="#535B5F" transform="translate(469,247)"/>
<path d="M0 0 C2.74729945 1.7410869 4.79130332 3.73476782 6.8984375 6.203125 C7.6203125 7.028125 8.3421875 7.853125 9.0859375 8.703125 C13.48195668 14.76659973 13.87225474 20.92558013 12.8984375 28.203125 C10.25863566 36.24869751 6.38777343 42.12356803 -1.1015625 46.203125 C-7.3479714 49.32632945 -15.28254221 49.40124901 -21.890625 47.328125 C-29.07008969 44.0312107 -34.80297573 38.90490881 -37.625 31.33984375 C-39.44183001 23.19389279 -38.83082094 15.60991571 -34.65234375 8.359375 C-26.47874924 -3.0054214 -12.52561878 -6.42107533 0 0 Z " fill="#00B9D1" transform="translate(371.1015625,241.796875)"/>
<path d="M0 0 C7.72641864 4.03056857 12.4496954 8.96917717 15.125 17.3125 C16.43977382 25.96456 15.25647632 33.15953301 10.125 40.3125 C5.24546186 45.90265049 -0.42570099 48.82613938 -7.76953125 49.62890625 C-17.10599212 49.9929695 -22.94683846 47.45634136 -29.875 41.3125 C-35.08403079 33.80968775 -37.37600898 26.38269955 -35.875 17.3125 C-33.30056181 9.09881626 -27.02647661 3.71862303 -19.875 -0.6875 C-13.48985213 -2.81588262 -6.21098035 -2.61959715 0 0 Z " fill="#00B9D1" transform="translate(163.875,240.6875)"/>
<path d="M0 0 C6.15302359 3.74531871 11.2306122 8.06581936 13.06640625 15.2578125 C13.91288982 23.00393574 14.67709288 31.18237877 9.62109375 37.65234375 C4.46269761 42.97923022 -0.65217179 47.7064925 -8.30078125 48.69140625 C-18.01646582 48.7022255 -23.64896829 47.52348383 -30.74609375 40.8828125 C-35.20872913 36.40957704 -37.29080578 31.81165698 -37.40234375 25.44702148 C-37.39203125 24.76583252 -37.38171875 24.08464355 -37.37109375 23.3828125 C-37.36207031 22.67390869 -37.35304687 21.96500488 -37.34375 21.23461914 C-37.07525922 13.13421499 -34.92809345 8.90276465 -29.12109375 3.4453125 C-20.27853211 -3.67425 -10.2432915 -5.24075379 0 0 Z " fill="#01A7F2" transform="translate(267.93359375,19.7421875)"/>
<path d="M0 0 C4.41274928 1.59771957 6.320959 3.85973962 9.4609375 7.2421875 C17.93743679 15.35147382 29.73314176 16.69587465 40.9375 16.625 C41.85885742 16.62008545 42.78021484 16.6151709 43.72949219 16.61010742 C54.7810451 16.42046884 66.29998621 14.57121385 74.48828125 6.46875 C75.06964844 5.8396875 75.65101563 5.210625 76.25 4.5625 C78.69669441 1.9858426 79.68031337 1.2930918 83.1875 0.0625 C86.625 0.3125 86.625 0.3125 90.0625 2.3125 C92.625 5.3125 92.625 5.3125 93.4375 8.625 C91.83489552 15.89835878 85.75113732 20.76739744 79.8359375 24.9375 C63.5235748 35.08229094 41.97027553 37.27623626 23.25390625 33.5859375 C19.92078656 32.68785706 16.81147552 31.63403964 13.625 30.3125 C12.73167969 29.961875 11.83835938 29.61125 10.91796875 29.25 C2.95871385 25.72885498 -4.62554163 19.67416047 -9.375 12.3125 C-9.9375 8.875 -9.9375 8.875 -9.375 5.3125 C-6.37272048 1.79763618 -4.63419701 0.42909232 0 0 Z " fill="#040400" transform="translate(214.375,323.6875)"/>
<path d="M0 0 C9.53181983 -0.64139348 16.22051902 0.85049886 23.8125 6.75 C29.22084206 11.85648111 31.13366574 16.36211061 31.52148438 23.86816406 C31.63952964 30.00370737 31.46741612 35.38756497 27.5546875 40.39453125 C22.32858218 45.7913385 17.17842956 50.664473 9.3515625 51.29296875 C8.12179687 51.25816406 6.89203125 51.22335938 5.625 51.1875 C4.37976563 51.16042969 3.13453125 51.13335937 1.8515625 51.10546875 C0.91054687 51.07066406 -0.03046875 51.03585938 -1 51 C-1 50.67 -1 50.34 -1 50 C0.5778125 49.7525 0.5778125 49.7525 2.1875 49.5 C6.43615402 48.30452852 7.85130168 45.88353935 9.95703125 42.16796875 C10.30121094 41.45253906 10.64539063 40.73710938 11 40 C11.36738281 39.2575 11.73476563 38.515 12.11328125 37.75 C14.84434617 29.28008942 14.05089951 17.9925018 10.20703125 10.01953125 C7.50273169 5.49486176 4.88798186 2.23687306 0 0 Z " fill="#0275B9" transform="translate(250,17)"/>
<path d="M0 0 C4.69024497 2.34512249 5.32966296 3.5780721 7.21459961 8.20999146 C8.75526486 13.68295694 8.56764297 19.22364333 8.53125 24.87109375 C8.5350769 26.18860123 8.53890381 27.5061087 8.54284668 28.86354065 C8.54871049 31.63977024 8.54028268 34.41548156 8.52148438 37.19165039 C8.49871783 40.72310735 8.51182139 44.25334635 8.53577423 47.78475857 C8.5538345 51.18863041 8.54113 54.59218749 8.53125 57.99609375 C8.53934692 59.25054794 8.54744385 60.50500214 8.55578613 61.79747009 C8.47996586 68.9621524 8.05544077 75.85158059 4 82 C2.02 82.99 2.02 82.99 0 84 C0 56.28 0 28.56 0 0 Z " fill="#7E8C92" transform="translate(470,248)"/>
</svg>
